<?xml version="1.0" standalone="no"?>
<!DOCTYPE svg PUBLIC "-//W3C//DTD SVG 20010904//EN"
 "http://www.w3.org/TR/2001/REC-SVG-20010904/DTD/svg10.dtd">
<svg version="1.0" xmlns="http://www.w3.org/2000/svg"
 width="500.000000pt" height="500.000000pt" viewBox="0 0 500.000000 500.000000"
 preserveAspectRatio="xMidYMid meet">
<metadata>
Created by potrace 1.14, written by Peter Selinger 2001-2017
</metadata>
<g transform="translate(0.000000,500.000000) scale(0.100000,-0.100000)"
fill="#000000" stroke="none">
<path d="M2335 4983 c-240 -33 -498 -212 -650 -451 -39 -60 -41 -62 -75 -57
-19 3 -110 8 -201 11 -188 7 -275 -5 -410 -57 -80 -31 -198 -106 -262 -167
-93 -89 -180 -243 -218 -387 -30 -115 -37 -328 -14 -455 9 -52 19 -109 22
-125 4 -28 0 -34 -67 -79 -214 -146 -370 -352 -431 -571 -33 -114 -33 -298 -1
-408 26 -93 78 -200 137 -282 56 -78 195 -212 282 -269 l69 -46 -13 -73 c-17
-97 -16 -318 1 -409 35 -178 103 -308 230 -433 109 -108 221 -172 373 -212
136 -36 356 -38 513 -4 l105 22 15 -23 c163 -250 395 -432 626 -492 83 -22
304 -22 388 0 202 51 404 203 554 417 52 75 56 79 86 73 17 -4 106 -9 197 -13
134 -4 182 -2 250 12 346 70 581 303 654 651 25 116 23 320 -5 453 -19 94 -20
105 -5 113 51 29 181 137 246 205 151 158 229 307 260 498 49 309 -116 647
-422 862 -80 56 -81 56 -75 92 32 179 30 352 -4 486 -83 325 -302 537 -633
612 -112 25 -344 22 -476 -6 -57 -12 -104 -21 -106 -19 -1 2 -17 26 -35 53
-101 151 -254 297 -398 377 -152 85 -344 123 -507 101z m625 -967 c159 -28
323 -95 429 -174 200 -151 263 -400 156 -618 -44 -91 -139 -183 -218 -212
-116 -44 -237 -38 -237 11 0 12 23 66 50 122 65 129 80 216 57 330 -33 162
-151 274 -337 321 -101 26 -300 16 -405 -20 -372 -127 -596 -590 -595 -1233 1
-445 123 -782 367 -1013 157 -149 327 -208 558 -197 280 14 490 114 649 307
64 78 69 80 137 34 50 -34 66 -66 50 -100 -18 -40 -91 -131 -161 -202 -217
-218 -459 -315 -785 -314 -353 1 -614 98 -842 315 -280 266 -423 662 -423
1172 0 327 60 608 181 847 81 161 221 324 367 428 176 125 340 183 612 214 66
8 305 -4 390 -18z"/>
</g>
</svg>
